<?xml version="1.0" encoding="UTF-8"?>
<svg xmlns="http://www.w3.org/2000/svg" width="36" height="36" viewBox="0 0 36 36" fill="none">
  <path d="M32.0833 35.835H3.75C1.68333 35.835 0 34.1517 0 32.085V11.6767C0 11.255 0.0700001 10.8383 0.21 10.4383L2.99333 2.51C3.2505 1.77713 3.72888 1.14219 4.3624 0.692878C4.99592 0.243563 5.75332 0.0020401 6.53 0.00166674H9.58333C9.91486 0.00166674 10.2328 0.133363 10.4672 0.367783C10.7016 0.602204 10.8333 0.920146 10.8333 1.25167C10.8333 1.58319 10.7016 1.90113 10.4672 2.13555C10.2328 2.36997 9.91486 2.50167 9.58333 2.50167H6.53C6.27134 2.50183 6.01909 2.58222 5.80805 2.73178C5.597 2.88133 5.43754 3.09267 5.35167 3.33667L2.57 11.2633C2.52363 11.3962 2.49996 11.5359 2.5 11.6767V32.085C2.5 32.7733 3.06 33.335 3.75 33.335H32.0833C32.7717 33.335 33.3333 32.7733 33.3333 32.085V11.6767C33.334 11.5375 33.3103 11.3993 33.2633 11.2683L30.4817 3.335C30.3955 3.09088 30.2357 2.87948 30.0244 2.72994C29.8131 2.58039 29.5606 2.50006 29.3017 2.5H26.25C25.9185 2.5 25.6005 2.3683 25.3661 2.13388C25.1317 1.89946 25 1.58152 25 1.25C25 0.918479 25.1317 0.600537 25.3661 0.366117C25.6005 0.131696 25.9185 0 26.25 0H29.3017C30.8917 0 32.315 1.00833 32.8417 2.50833L35.6217 10.435C35.7617 10.83 35.8333 11.2483 35.8333 11.675V32.085C35.8333 34.1517 34.15 35.835 32.0833 35.835Z" fill="black"></path>
  <path d="M34.3333 13.752H1V11.252H34.3333V13.752Z" fill="black"></path>
  <path d="M15 4.91846H21C23.1667 4.91846 27.5 6.21846 27.5 11.4185C27.5 16.6185 27.5 21.2518 27.5 22.9185C27.5 25.9185 26.5 28.9185 22 28.9185C18 28.9185 15 28.9185 14 28.9185C10.5 28.9185 9 27.1185 9 23.9185M17 1.41846L14 4.41846M14 4.91846L17 8.41846" stroke="black" stroke-width="2.5" stroke-linecap="round"></path>
  <path d="M20.8 18.3437H14.3C13.4875 18.3437 13 17.6937 13 17.0437C13 16.3937 13.4875 15.7437 14.3 15.7437H20.8C21.45 15.7437 22.1 16.2312 22.1 17.0437C22.1 17.8562 21.45 18.3437 20.8 18.3437ZM20.8 23.2187H14.3C13.4875 23.2187 13 22.5687 13 21.9187C13 21.2687 13.4875 20.6187 14.3 20.6187H20.8C21.45 20.6187 22.1 21.1062 22.1 21.9187C21.9375 22.5687 21.45 23.2187 20.8 23.2187Z" fill="black"></path>
</svg>
