<?xml version="1.0" encoding="UTF-8"?>
<svg xmlns="http://www.w3.org/2000/svg" width="40" height="40" viewBox="0 0 40 40" fill="none">
  <path d="M35.0233 40H4.97674C2.78512 40 1 38.2242 1 36.044V14.5143C1 14.0694 1.07423 13.6299 1.2227 13.2079L4.17433 4.84396C4.44704 4.07082 4.95435 3.401 5.62617 2.92699C6.298 2.45299 7.1012 2.1982 7.92484 2.1978H11.1628C11.5144 2.1978 11.8515 2.33673 12.1001 2.58403C12.3487 2.83134 12.4884 3.16675 12.4884 3.51648C12.4884 3.86622 12.3487 4.20163 12.1001 4.44893C11.8515 4.69623 11.5144 4.83516 11.1628 4.83516H7.92484C7.65053 4.83533 7.38304 4.92015 7.15923 5.07792C6.93542 5.23569 6.76632 5.45864 6.67526 5.71604L3.7254 14.0782C3.67622 14.2184 3.65112 14.3658 3.65116 14.5143V36.044C3.65116 36.7701 4.24502 37.3626 4.97674 37.3626H35.0233C35.7532 37.3626 36.3488 36.7701 36.3488 36.044V14.5143C36.3495 14.3675 36.3244 14.2217 36.2746 14.0835L33.3247 5.71429C33.2334 5.45675 33.0639 5.23374 32.8398 5.07598C32.6157 4.91822 32.3479 4.83347 32.0734 4.83341H28.8372C28.4856 4.83341 28.1485 4.69447 27.8999 4.44717C27.6513 4.19987 27.5116 3.86446 27.5116 3.51472C27.5116 3.16499 27.6513 2.82958 27.8999 2.58228C28.1485 2.33498 28.4856 2.19604 28.8372 2.19604H32.0734C33.7595 2.19604 35.2689 3.25978 35.8274 4.8422L38.7755 13.2044C38.924 13.6211 39 14.0624 39 14.5125V36.044C39 38.2242 37.2149 40 35.0233 40Z" fill="black"></path>
  <path d="M37.6744 16.7033H2.32558V14.0659H37.6744V16.7033Z" fill="black"></path>
  <path d="M27.9535 27.2527L20.5391 23.9754C20.3696 23.8996 20.1858 23.8604 20 23.8604C19.8142 23.8604 19.6304 23.8996 19.4609 23.9754L12.0465 27.2527V14.0659H27.9535V27.2527ZM14.6977 16.7033V23.193L18.3846 21.5648C18.8934 21.3399 19.444 21.2237 20.0009 21.2237C20.5577 21.2237 21.1084 21.3399 21.6172 21.5648L25.3023 23.193V16.7033H14.6977Z" fill="black"></path>
  <path d="M21.3256 6.92747V1.31868C21.3256 0.968945 21.1859 0.633533 20.9373 0.386233C20.6887 0.138932 20.3516 0 20 0C19.6484 0 19.3113 0.138932 19.0627 0.386233C18.8141 0.633533 18.6744 0.968945 18.6744 1.31868V6.92747L17.4019 5.66154C17.2805 5.53198 17.1342 5.42806 16.9716 5.35599C16.8089 5.28391 16.6334 5.24516 16.4554 5.24204C16.2774 5.23891 16.1007 5.27148 15.9356 5.3378C15.7705 5.40413 15.6206 5.50284 15.4947 5.62806C15.3688 5.75328 15.2696 5.90244 15.2029 6.06664C15.1363 6.23084 15.1035 6.40671 15.1067 6.58377C15.1098 6.76083 15.1488 6.93545 15.2212 7.09721C15.2937 7.25897 15.3981 7.40455 15.5284 7.52527L18.4376 10.4211C18.6427 10.6252 18.8863 10.7872 19.1544 10.8977C19.4225 11.0082 19.7098 11.065 20 11.065C20.2902 11.065 20.5775 11.0082 20.8456 10.8977C21.1137 10.7872 21.3573 10.6252 21.5624 10.4211L24.4716 7.52527C24.7058 7.2753 24.8332 6.94466 24.8272 6.60304C24.8211 6.26141 24.682 5.93546 24.4391 5.69385C24.1963 5.45224 23.8686 5.31385 23.5252 5.30782C23.1818 5.3018 22.8494 5.42861 22.5981 5.66154L21.3256 6.92747Z" fill="black"></path>
</svg>
