<?xml version="1.0" encoding="UTF-8"?>
<svg xmlns="http://www.w3.org/2000/svg" width="38" height="36" viewBox="0 0 38 36" fill="none">
  <path d="M26.8125 21.6121L19.9875 18.5246C19.6625 18.3621 19.3375 18.3621 19.0125 18.5246L12.1875 21.6121V9.26211L15.4375 0.162109H23.5625L26.8125 9.74961V21.6121ZM14.625 9.91211V17.8746L18.0375 16.4121C19.0125 15.9246 19.9875 15.9246 20.9625 16.4121L24.375 17.8746V9.91211L21.775 2.59961H17.0625L14.625 9.91211Z" fill="black"></path>
  <path d="M33.3124 35.1H5.68745C3.73745 35.1 2.11245 33.475 2.11245 31.525V28.925C2.11245 28.275 2.59995 27.625 3.41245 27.625C4.22495 27.625 4.71245 28.1125 4.71245 28.925V31.3625C4.71245 32.0125 5.19995 32.6625 6.01245 32.6625H33.6374C34.2874 32.6625 34.9374 32.175 34.9374 31.3625V9.9125C34.9374 9.75 34.9374 9.5875 34.7749 9.425L32.3374 3.25C32.1749 2.7625 31.6874 2.4375 31.1999 2.4375H8.12495C7.63745 2.4375 7.14995 2.7625 6.98745 3.25L4.54995 9.425C4.54995 9.5875 4.38745 9.75 4.38745 9.9125V14.3C4.38745 14.95 3.89995 15.6 3.08745 15.6C2.27495 15.6 1.94995 14.95 1.94995 14.3V9.9125C1.94995 9.425 2.11245 8.9375 2.27495 8.6125L4.71245 2.4375C5.36245 0.975 6.66245 0 8.12495 0H30.8749C32.3374 0 33.6374 0.975 34.2874 2.275L36.7249 8.45C36.8874 8.9375 37.0499 9.2625 37.0499 9.75V31.2C37.0499 33.3125 35.2624 35.1 33.3124 35.1Z" fill="black"></path>
  <path d="M3.25 9.4248H35.75V11.8623H3.25V9.4248ZM7.8 20.4748H1.3C0.4875 20.4748 0 19.8248 0 19.1748C0 18.5248 0.4875 17.8748 1.3 17.8748H7.8C8.45 17.8748 9.1 18.3623 9.1 19.1748C9.1 19.9873 8.45 20.4748 7.8 20.4748ZM7.8 25.3498H1.3C0.4875 25.3498 0 24.6998 0 24.0498C0 23.3998 0.4875 22.7498 1.3 22.7498H7.8C8.45 22.7498 9.1 23.2373 9.1 24.0498C8.9375 24.6998 8.45 25.3498 7.8 25.3498Z" fill="black"></path>
</svg>
